<?xml version="1.0" encoding="UTF-8"?>
<svg xmlns="http://www.w3.org/2000/svg" xmlns:xlink="http://www.w3.org/1999/xlink" viewBox="0 0 514.72 513.61">
  <defs>
    <style>
      .cls-1 {
        fill: #433956;
      }

      .cls-2 {
        fill: #9288aa;
      }

      .cls-3 {
        fill: #ddd0c7;
        mix-blend-mode: multiply;
      }

      .cls-4 {
        fill: #ed6e58;
      }

      .cls-5 {
        fill: #b2807a;
      }

      .cls-6 {
        fill: #9bbbce;
      }

      .cls-7 {
        fill: #ff957d;
      }

      .cls-8 {
        isolation: isolate;
      }

      .cls-9 {
        fill: #2c1e43;
      }

      .cls-10 {
        fill: #934545;
      }

      .cls-11 {
        fill: #622828;
      }

      .cls-12 {
        fill: #492222;
      }

      .cls-13 {
        clip-path: url(#clippath);
      }
    </style>
    <clipPath id="clippath">
      <circle class="cls-6" cx="258.49" cy="256.85" r="248.49"/>
    </clipPath>
  </defs>
  <g class="cls-8">
    <g id="Layer_1" data-name="Layer 1">
      <g>
        <circle class="cls-6" cx="258.49" cy="256.85" r="248.49"/>
        <g class="cls-13">
          <g>
            <path class="cls-11" d="M261.38,57.39c74.36,0,102.27,41.44,114.05,74.16,4.36,12.11,12.01,13.62,14.89,29.46,2.88,15.84-3.15,22.54-2.12,32.19,1.79,16.77,10.26,18.89,12.68,32.62,2.88,16.32-1.06,20.9,3.36,35.04,4.8,15.37,15.15,21.51,17.76,33.97,3.24,15.48-7.68,29.04-17.28,36.72-9.6,7.68,3.62,13.17-2.16,26.29-5.4,12.24-21.38,15.61-23.4,19.45-3.24,6.12,4.95,10.77-2.16,25.92-5.4,11.52-21.6,18.72-45.37,13.32-21.02-4.78-23.05-30.24-24.13-59.05-1.16-31-33.36-38.53-33.36-38.53l-36.71-2.16s-14.54,13.32-3.38,32.76c9.74,16.96,28.44,53.29,3.96,66.61-9.12,4.96-19.44-2.88-42.13,4.32-16.61,5.27-19.8,12.6-36.01,17.28-11.55,3.34-39.61,4.68-52.21-9.72-12.9-14.74-6.84-23.76-11.16-37.45-4.9-15.52-21.96-24.84-23.05-40.32-1.74-24.95,20.27-26.2,23.03-35.86,2.75-9.64-7.19-15.63-2.15-26.43,6.89-14.77,22.08-10.73,32.4-24.84,7.3-9.97-9-21.96-6.48-33.85,4.14-19.49,19.25-17.92,20.63-28.48,1.38-10.55-13.08-24.44-9.64-39.93,4.54-20.44,18.93-26.16,33.39-41.65,10.86-11.63,23.06-60.24,96.73-61.85Z"/>
            <path class="cls-12" d="M236.92,245.5s-41.05-21.96-51.49-8.28c-10.44,13.68,1.8,27-9.72,45.73-11.52,18.72-29.62,10.42-41.41,25.92-13.68,18-5.76,40.69-4.68,51.85,1.08,11.16-12.92,26.65,0,49.69,13.32,23.77,49.69,17.28,49.69,17.28,0,0,.22.1.62.28,4.24-2.62,8.87-5.24,15.94-7.48,22.68-7.2,33.01.64,42.13-4.32,24.48-13.32,5.78-49.65-3.96-66.61-11.16-19.44,3.38-32.76,3.38-32.76l36.71,2.16s1.57.36,4.03,1.27c.91-10.7,1.48-18.59,1.25-19.27-.72-2.16-42.49-55.45-42.49-55.45Z"/>
            <path class="cls-9" d="M438.81,789.48c-10.51-110.83-34.9-274.19-83.55-349.55-11.8-18.27-45.73-4.92-78.73-1.92-26.85,2.45-53.4-6.72-64.33-6.72-77.64,0-113.95,217.7-127.61,356.89,118.08-.89,236.16-.95,354.22,1.3Z"/>
            <path class="cls-1" d="M463.75,452.41c-11.52-31.2-43.57-48.34-76.33-61.45-33.6-13.44-65.05-20.52-75.49-37.45-10.44-16.92-7.59-54.3-7.59-54.3l-37.05,8.58-36.82-8.58s2.85,37.38-7.59,54.3c-10.44,16.93-41.89,24-75.49,37.45-32.76,13.1-64.81,30.24-76.33,61.45-12.73,34.48-60.02,283.73-60.02,283.73,0,0,17.28,7.68,51.85,10.56,34.57,2.88,57.86-2.88,57.86-2.88,0,0,31.91-187.71,45.83-187.71h201.63c13.92,0,45.83,187.71,45.83,187.71,0,0,23.29,5.76,57.86,2.88,34.56-2.88,51.85-10.56,51.85-10.56,0,0-47.28-249.24-60.01-283.73Z"/>
            <path class="cls-12" d="M331.26,269.63s3.24,14.76,8.64,25.2c5.4,10.44,16.56,3.96,20.16,14.76,3.6,10.8-8.64,11.52-12.6,23.04-3.96,11.52,9.28,10.73,7.56,22.32-1.44,9.72-10.08,8.28-16.2,15.48-6.12,7.2-5.04,24.12-5.04,24.12l-50.41-4.68.72-84.97,47.17-35.29Z"/>
            <path class="cls-5" d="M265.01,427.69c40.82,0,77.74-16.66,104.36-43.54-26.32-9.53-48.9-16.79-57.44-30.63-10.44-16.92-7.59-54.3-7.59-54.3l-37.05,8.58-36.82-8.58s2.85,37.38-7.59,54.3c-8.92,14.44-33.14,21.73-60.95,31.91,26.52,26.13,62.91,42.26,103.07,42.26Z"/>
            <path class="cls-5" d="M265.01,427.69c40.82,0,77.74-16.66,104.36-43.54-26.32-9.53-48.9-16.79-57.44-30.63-10.44-16.92-7.59-54.3-7.59-54.3l-37.05,8.58-36.82-8.58s2.85,37.38-7.59,54.3c-8.92,14.44-33.14,21.73-60.95,31.91,26.52,26.13,62.91,42.26,103.07,42.26Z"/>
            <path class="cls-2" d="M141.34,393.44l6.45,6.35c31.46,30.99,73.09,48.06,117.22,48.06s87.06-17.58,118.69-49.52l6.27-6.33c-.85-.34-1.7-.7-2.55-1.04-33.6-13.44-65.05-20.52-75.49-37.45-10.44-16.92-7.59-54.3-7.59-54.3l-37.05,8.58-36.82-8.58s2.85,37.38-7.59,54.3c-10.44,16.93-41.89,24-75.49,37.45-2.02.81-4.04,1.63-6.06,2.48Z"/>
            <path class="cls-7" d="M265.01,427.69c40.82,0,77.74-16.66,104.36-43.54-26.32-9.53-48.9-16.79-57.44-30.63-10.44-16.92-7.59-54.3-7.59-54.3l-37.05,8.58-36.82-8.58s2.85,37.38-7.59,54.3c-8.92,14.44-33.14,21.73-60.95,31.91,26.52,26.13,62.91,42.26,103.07,42.26Z"/>
            <path class="cls-3" d="M266.13,345.49c17.83,0,27.61-16.72,37.4-22.72.26-.16.56-.35.83-.51-.82-12.46-.01-23.04-.01-23.04l-37.05,8.58-36.82-8.58s.88,11.51-.13,24.64c9.27,6.71,18.94,21.63,35.78,21.63Z"/>
            <g>
              <path class="cls-7" d="M340.15,213.07c2.12-3.27,8.14-10.96,18.32-4.85,10.18,6.11,4.85,20.04-.16,28.03-5.01,7.98-8.22,15.04-13.62,15.03-5.4,0-4.85-13.47-4.85-20.36,0-7.61-1.82-14.58.31-17.85Z"/>
              <path class="cls-4" d="M346.18,215.97c.97-3.16,6.23-4.59,10.02-1.88,3.29,2.34,3.26,6.93,2.19,12.29-1.25,6.27-5.32,11.04-7.83,9.71-2.5-1.33.16-4.23-.7-8.45-.86-4.23-5.25-6.58-3.68-11.67Z"/>
            </g>
            <path class="cls-7" d="M344.28,205.19c-.55-25.43.64-49.49-7.4-64.73-18.42-34.87-48.44-38.84-70.87-38.84s-52.44,3.97-70.86,38.84c-8.05,15.23-6.86,39.29-7.41,64.73-.58,27-3.88,44.19.2,63.89,3.8,18.37,30.43,37.37,44.04,45.73,8.91,5.46,17.81,20.67,34.03,20.67s25.12-15.21,34.03-20.67c13.62-8.35,40.24-27.35,44.04-45.73,4.08-19.7.78-36.9.2-63.89Z"/>
            <path class="cls-11" d="M245.93,103.64s42.35-3.53,66.7,18.88c28.61,26.31,31.48,70.66,31.48,70.66l2.5-39.14s-22.55-41.65-24.12-42.91c-1.56-1.25-40.71-20.36-41.65-20.36s-34.91,12.87-34.91,12.87Z"/>
            <path class="cls-11" d="M188.2,134.61c-9.6,16.32-3.61,38.58-3.84,58.57,12.05-7.29,30.49-21.17,45.1-39.66,17.42-22.05,26.79-42.44,30.28-53.95-21.19,1.1-50.19-1.25-71.53,35.04Z"/>
            <path class="cls-7" d="M189.54,213.07c-2.13-3.27-8.15-10.96-18.32-4.85-10.18,6.11-4.86,20.04.16,28.03,5.01,7.98,8.22,15.04,13.62,15.03,5.4,0,4.86-13.47,4.86-20.36,0-7.61,1.81-14.58-.31-17.85Z"/>
            <path class="cls-4" d="M183.51,215.97c-.97-3.16-6.23-4.59-10.02-1.88-3.29,2.34-3.26,6.93-2.19,12.29,1.25,6.27,5.33,11.04,7.84,9.71,2.5-1.33-.16-4.23.7-8.45.86-4.23,5.25-6.58,3.68-11.67Z"/>
            <path class="cls-10" d="M350.94,177.81c-.71,0-1.33-.53-1.43-1.25-10.04-78.08-72.53-80.76-75.18-80.84-.8-.03-1.42-.68-1.4-1.48.02-.78.66-1.4,1.44-1.4h.04c.68.02,67.6,2.76,77.97,83.34.1.79-.46,1.51-1.25,1.61-.06,0-.12.01-.18.01Z"/>
            <path class="cls-10" d="M360.23,166.85c-.71,0-1.33-.53-1.43-1.25-5.95-44.81-30.47-64.47-50-73.08-.73-.32-1.06-1.17-.74-1.9.32-.72,1.17-1.06,1.9-.74,20.2,8.91,45.57,29.21,51.7,75.34.1.78-.45,1.51-1.24,1.61-.06.01-.13.02-.19.02Z"/>
            <path class="cls-10" d="M157.71,140.73c-.57,0-1.1-.34-1.33-.9-.3-.73.05-1.57.78-1.88,15.09-6.2,20.18-16.92,25.57-28.26,3.75-7.9,7.63-16.06,15.05-22.95,20.31-18.86,46.94-20.48,48.07-20.54.78-.04,1.47.57,1.51,1.36.04.8-.56,1.48-1.36,1.52-.27.01-26.74,1.65-46.27,19.78-7.01,6.51-10.77,14.42-14.4,22.07-5.39,11.34-10.96,23.08-27.08,29.7-.18.07-.36.11-.55.11Z"/>
            <path class="cls-10" d="M112.82,301.67c-.17,0-.34-.03-.51-.09-.74-.28-1.12-1.11-.84-1.86,2.04-5.43,6.93-8.25,12.11-11.23,6.68-3.84,13.58-7.81,16.17-17.91,2.06-8.02.31-15.17-1.37-22.08-1.74-7.16-3.54-14.55-1.01-22.64,1.96-6.26,5.01-10.89,7.97-15.35,4.38-6.63,8.17-12.36,7.34-22.02-.07-.79.52-1.49,1.31-1.56.78-.09,1.49.52,1.56,1.32.91,10.66-3.32,17.07-7.81,23.85-2.84,4.3-5.78,8.75-7.62,14.63-2.29,7.33-.66,14.02,1.06,21.1,1.77,7.26,3.59,14.76,1.36,23.48-2.89,11.27-10.67,15.74-17.52,19.69-4.92,2.83-9.18,5.28-10.85,9.74-.22.58-.77.93-1.35.93Z"/>
            <path class="cls-10" d="M389.35,334.32c-.1,0-.19-.01-.29-.03-.78-.16-1.29-.92-1.13-1.7,1.12-5.54,5.66-9.58,10.05-13.5,5.13-4.58,10.44-9.31,10.57-16.48.12-7.05-3.82-11.32-8-15.83-3.83-4.14-7.78-8.42-9.13-15.06-1.41-6.91-.89-13.45-.34-20.37.54-6.79,1.1-13.8-.27-21.43-2.66-14.92-17.3-32.27-17.44-32.45-.52-.6-.44-1.51.16-2.03.61-.51,1.52-.44,2.03.17.62.73,15.29,18.12,18.08,33.8,1.43,8,.86,15.21.3,22.17-.53,6.71-1.03,13.05.29,19.57,1.19,5.86,4.87,9.84,8.42,13.68,4.38,4.73,8.91,9.63,8.77,17.83-.14,8.44-6.19,13.83-11.53,18.59-4.23,3.76-8.21,7.32-9.14,11.91-.14.69-.74,1.15-1.41,1.15Z"/>
            <path class="cls-10" d="M167.43,204.46c-.78,0-1.42-.62-1.44-1.4-.01-.63-.28-15.4,9.12-19.71,3.81-1.75,23.82-11.81,43.36-38.43,6.71-9.15,10.7-18.44,14.22-26.65,6-14.01,10.75-25.07,25.33-26.51.78-.06,1.5.5,1.57,1.29.08.8-.5,1.5-1.29,1.58-12.88,1.27-17.11,11.13-22.96,24.77-3.58,8.35-7.63,17.8-14.54,27.21-19.97,27.19-40.56,37.55-44.49,39.34-7.69,3.53-7.44,16.89-7.44,17.02.02.8-.61,1.45-1.4,1.48h-.04Z"/>
          </g>
        </g>
      </g>
    </g>
  </g>
</svg>