<?xml version="1.0" encoding="UTF-8"?>
<svg id="Layer_1" data-name="Layer 1" xmlns="http://www.w3.org/2000/svg" xmlns:xlink="http://www.w3.org/1999/xlink" viewBox="0 0 517.79 526.42">
  <defs>
    <style>
      .cls-1 {
        fill: #773f42;
      }

      .cls-2 {
        fill: #b26552;
      }

      .cls-3 {
        fill: #a30a0a;
      }

      .cls-4 {
        fill: #bf5341;
      }

      .cls-5 {
        fill: #d6a496;
      }

      .cls-6 {
        fill: none;
      }

      .cls-7 {
        fill: #323651;
      }

      .cls-8 {
        fill: #cacae8;
      }

      .cls-9 {
        fill: #513133;
        opacity: .66;
      }

      .cls-10 {
        fill: #f4bba8;
      }

      .cls-11 {
        clip-path: url(#clippath);
      }
    </style>
    <clipPath id="clippath">
      <circle class="cls-6" cx="259.06" cy="263.54" r="248.49"/>
    </clipPath>
  </defs>
  <g class="cls-11">
    <circle class="cls-8" cx="259.06" cy="263.54" r="248.49"/>
    <g>
      <path class="cls-7" d="M33.88,755.93c-2.12-34.9-.31-72.13,8.21-109.71,12.02-53.01,31.46-94.99,53.6-128.11-.32,29.05-7.35,93.66-8.78,164.86-.51,25.38-.8,49.95-.93,73.45,17.15.13,34.3.24,51.46.32,95.44.42,190.88.04,286.32-.47-1.45-33.1-3.06-66.02-5.17-98.4-5.7-87.46-14.85-162.36-17.15-180.52,28.26,36.02,52.34,89.17,60.18,167.52,4.16,41.6,4.54,78.61,2.55,111.18,23.62-.13,47.23-.26,70.85-.39,4.6-55.15,3.14-116.62-10.65-179.37-48.23-219.52-207.64-245.06-207.64-245.06l-22.92,41.59-8.35-4.95-59.54,9.92-28.98-46.56S27.3,389.4-22.45,608.57c-11.36,50.06-13.9,100.01-11.51,146.45,22.61.37,45.22.66,67.84.92Z"/>
      <path class="cls-10" d="M33.88,755.93c-2.12-34.9-.31-72.13,8.21-109.71,12.02-53.01,31.46-94.99,53.6-128.11-.32,29.05-7.35,93.66-8.78,164.86-.51,25.38-.8,49.95-.93,73.45,17.15.13,34.3.24,51.46.32,95.44.42,190.88.04,286.32-.47-1.45-33.1-3.06-66.02-5.17-98.4-5.7-87.46-14.85-162.36-17.15-180.52,28.26,36.02,52.34,89.17,60.18,167.52,4.16,41.6,4.54,78.61,2.55,111.18,23.62-.13,47.23-.26,70.85-.39,4.6-55.15,3.14-116.62-10.65-179.37-48.23-219.52-207.64-245.06-207.64-245.06l-22.92,41.59-8.35-4.95-59.54,9.92-28.98-46.56S27.3,389.4-22.45,608.57c-11.36,50.06-13.9,100.01-11.51,146.45,22.61.37,45.22.66,67.84.92Z"/>
      <path class="cls-10" d="M260.9,446.54c22.05-1.02,75.31-66.96,88.33-105.21-19.58-8.02-32.5-10.1-32.5-10.1l-22.92,41.59-8.35-4.95-59.54,9.92-28.98-46.56s-11.71,4.02-29.87,13.9c10.88,21.45,73.05,102.35,93.82,101.4Z"/>
      <path class="cls-4" d="M316.62,331.24s-21.01-9.91-21.01-19.67v-35.8h-77.65v35.8c0,9.75-21.01,19.67-21.01,19.67l.11.04c.02,33.03,26.8,59.8,59.84,59.8s59.84-26.79,59.84-59.84h-.11Z"/>
      <path class="cls-5" d="M257.25,461.69c.38,1.06.61,2.24.61,3.51,0,4.36-2.54,7.9-5.68,7.9s-5.68-3.54-5.68-7.9c0-3.2,1.38-5.95,3.35-7.19-3.56.97-6.24,5.32-6.24,10.55,0,5.94,3.46,10.76,7.73,10.76s7.73-4.82,7.73-10.76c0-2.63-.7-5.01-1.83-6.88Z"/>
      <path class="cls-5" d="M259.33,509.72l-2.01-1.79c11.1-12.43,14.18-29.77,8.04-45.25-2.42-6.1-6.83-10.8-11.6-15.24l1.57-2.13c5.07,4.71,9.96,9.9,12.54,16.38,6.51,16.43,3.25,34.83-8.54,48.03Z"/>
      <path class="cls-5" d="M96.9,518.71l-2.41-1.2c.15-.3,15.53-30.68,45.19-44.62l1.15,2.43c-28.79,13.53-43.78,43.09-43.93,43.39Z"/>
      <path class="cls-5" d="M400.26,477.99c-.1-.18-9.81-18.06-21.23-31.24l2.03-1.76c11.61,13.4,21.47,31.54,21.56,31.73l-2.36,1.28Z"/>
      <path class="cls-2" d="M478.17,755.98c.9,0,1.8-.01,2.7-.02,6.62-67.55,2.59-156.34-40.08-241.23l-2.4,1.21c42.45,84.45,46.4,172.85,39.78,240.03Z"/>
      <g>
        <path class="cls-3" d="M295.61,293.08h-77.65v13.8c11.27,6.95,24.25,11.86,37.86,11.86,14.4,0,28.1-5.5,39.79-13.09v-12.58Z"/>
        <path class="cls-1" d="M336.26,199.06c-1.63-11.13,1.83-37.52-6.1-70.16-13.64-56.14-70.01-56.34-74.34-56.34s-60.7.2-74.34,56.34c-7.93,32.64-4.47,59.03-6.1,70.16-1.84,12.51-.6,51.41,10.98,68.03,11.89,17.09,39.16,41.39,69.45,41.39s57.56-24.3,69.46-41.39c11.57-16.62,12.81-55.52,10.98-68.03Z"/>
        <path class="cls-4" d="M336.26,199.06c-1.63-11.13,1.83-37.52-6.1-70.16-13.64-56.14-70.01-56.34-74.34-56.34s-60.7.2-74.34,56.34c-7.93,32.64-4.47,59.03-6.1,70.16-1.84,12.51-.6,51.41,10.98,68.03,11.89,17.09,39.16,41.39,69.45,41.39s57.56-24.3,69.46-41.39c11.57-16.62,12.81-55.52,10.98-68.03Z"/>
        <g>
          <path class="cls-4" d="M176.68,183.72c-1.73-5.46-12.22-8.63-19.58-1.74-5.11,4.79-7.33,24.11,1.63,33.06,3.05,3.04,6.82,11.88,11.82,11.66,4.73-.21,4.16-6.87,6.02-12.74,1.61-5.12,2.17-23.71.11-30.24Z"/>
          <path class="cls-9" d="M165.57,184.14c-6.93.51-7.85,9.35-6.88,15.08,1.13,6.67,4.2,11.93,8.29,11.47,4.09-.47,2.91-7.06,4.62-12.82,1.86-6.27-.04-14.17-6.03-13.73Z"/>
        </g>
        <g>
          <path class="cls-4" d="M334.67,183.72c1.73-5.46,12.22-8.63,19.57-1.74,5.11,4.79,7.33,24.11-1.63,33.06-3.04,3.04-6.53,11.88-11.53,11.66-4.74-.21-4.46-6.87-6.31-12.74-1.6-5.12-2.17-23.71-.1-30.24Z"/>
          <path class="cls-9" d="M346.38,183.22c7.08.53,8.03,9.57,7.04,15.43-1.16,6.82-4.3,12.21-8.48,11.73-4.18-.48-2.98-7.22-4.72-13.11-1.9-6.41.03-14.5,6.16-14.05Z"/>
        </g>
      </g>
    </g>
  </g>
</svg>