<?xml version="1.0" encoding="UTF-8"?>
<svg id="Dimensions" xmlns="http://www.w3.org/2000/svg" viewBox="0 0 1366 527">
  <defs>
    <style>
      .cls-1, .cls-2, .cls-3, .cls-4, .cls-5 {
        fill: #fff;
      }

      .cls-1, .cls-6 {
        stroke: #fff;
        stroke-miterlimit: 10;
      }

      .cls-2 {
        font-family: Philosopher-Italic, Philosopher;
        font-size: 109px;
      }

      .cls-2, .cls-4, .cls-5 {
        font-style: italic;
      }

      .cls-6, .cls-7 {
        fill: none;
      }

      .cls-4 {
        letter-spacing: -.05em;
      }

      .cls-4, .cls-5 {
        font-family: Arial-ItalicMT, Arial;
        font-size: 96.09px;
      }

      .cls-8 {
        opacity: 0;
      }

      .cls-5 {
        letter-spacing: -.08em;
      }
    </style>
  </defs>
  <g>
    <path class="cls-3" d="M105.51,106.82l4.7.83v300.37H41.34V42.93h95.15l163.74,299.82s-4.7,1.11-4.7,1.11c0-100.32,0-200.63.01-300.95,22.95,0,45.9,0,68.84,0,.03,121.71.01,243.41.01,365.12h-95.7L105.51,106.82Z"/>
    <g>
      <path class="cls-3" d="M393.45,281.94c0,20.29,4.05,36.47,12.17,48.54,8.11,12.08,21.2,18.12,39.27,18.12s31.44-6.04,39.55-18.12c8.11-12.07,12.17-28.26,12.17-48.54v-108.7h69.15v116.72c0,23.42-4.7,43.93-14.11,61.54-9.4,17.61-23.1,31.25-41.07,40.93-17.98,9.68-39.88,14.52-65.69,14.52s-47.44-4.84-65.41-14.52c-17.98-9.68-31.67-23.32-41.07-40.93-9.41-17.61-14.11-38.12-14.11-61.54v-116.72h69.15v108.7Z"/>
      <g class="cls-8">
        <path class="cls-3" d="M565.77,173.24v116.72c0,23.42-4.7,43.93-14.11,61.54-9.4,17.61-23.1,31.25-41.07,40.93-17.98,9.68-39.88,14.52-65.69,14.52s-47.44-4.84-65.41-14.52c-17.98-9.68-31.67-23.32-41.07-40.93-9.41-17.61-14.11-38.12-14.11-61.54v-116.72h69.15v108.7c0,20.29,4.05,36.47,12.17,48.54,8.11,12.08,21.2,18.12,39.27,18.12s31.44-6.04,39.55-18.12c8.11-12.07,12.17-28.26,12.17-48.54v-108.7h69.15M576.77,162.24h-91.15v119.7c0,17.97-3.47,32.23-10.3,42.41-5.99,8.92-15.94,13.25-30.42,13.25s-24.16-4.33-30.14-13.25c-6.84-10.17-10.3-24.44-10.3-42.41v-119.7h-91.15v127.72c0,25.14,5.18,47.59,15.4,66.73,10.39,19.47,25.72,34.75,45.56,45.44,19.51,10.51,43.28,15.84,70.63,15.84s51.39-5.33,70.91-15.84c19.84-10.68,35.17-25.97,45.56-45.44,10.22-19.13,15.4-41.58,15.4-66.72v-127.72h0Z"/>
      </g>
    </g>
  </g>
  <path class="cls-3" d="M647.78,304.98c.55,10.33,3.32,19.55,8.3,27.66,4.98,8.12,12.22,14.48,21.71,19.09,9.5,4.61,20.97,6.91,34.44,6.91,11.8,0,22.26-1.47,31.39-4.43,9.13-2.94,16.87-6.54,23.23-10.79,6.36-4.24,11.02-8.48,13.97-12.72l29.32,42.87c-5.35,6.64-12.26,12.68-20.74,18.12-8.48,5.44-19.32,9.77-32.5,13-13.19,3.23-29.64,4.84-49.37,4.84-24.89,0-46.74-4.89-65.55-14.66-18.81-9.77-33.51-23.87-44.11-42.32-10.61-18.44-15.9-40.38-15.9-65.83,0-22.13,4.75-42.09,14.25-59.88,9.49-17.79,23.23-31.85,41.21-42.18,17.98-10.33,39.59-15.49,64.86-15.49,23.79,0,44.39,4.57,61.82,13.69,17.42,9.13,30.93,22.45,40.52,39.97,9.59,17.52,14.39,38.91,14.39,64.17,0,1.48-.05,4.52-.14,9.13-.09,4.61-.32,7.56-.69,8.85h-170.38ZM753.16,261.55c-.18-5.9-1.98-12.26-5.39-19.09-3.41-6.82-8.76-12.63-16.04-17.42-7.28-4.79-16.83-7.19-28.62-7.19s-21.81,2.35-29.46,7.05c-7.65,4.7-13.37,10.37-17.15,17.01-3.78,6.64-6.04,13.19-6.77,19.64h103.44Z"/>
  <g>
    <path class="cls-1" d="M955.49,338.72l-62.23-162.91h-75.24l96.25,227.08h79.46c1.8,0,3.42-1.08,4.12-2.73l.2-.46c.82-1.94.64-4.16-.49-5.94l-39.32-62.25-2.76,7.22Z"/>
    <g>
      <path class="cls-3" d="M1052.12,175.81c-17.88,0-33.9,11.03-40.28,27.73l-45.15,118.19,36.1,57.16c1.03,1.63,3.46,1.43,4.21-.34l85.69-202.74h-40.56Z"/>
      <g class="cls-8">
        <path class="cls-3" d="M1092.68,175.81l-85.69,202.74c-.4.96-1.3,1.45-2.2,1.45-.77,0-1.54-.36-2.01-1.11l-36.1-57.16,45.15-118.19c6.38-16.7,22.4-27.73,40.28-27.73h40.56M1109.27,164.81h-57.16c-11.01,0-21.62,3.3-30.69,9.54-9.07,6.24-15.94,14.98-19.87,25.26l-45.15,118.19-1.97,5.14,2.94,4.66,36.1,57.16c2.47,3.9,6.69,6.24,11.31,6.24,5.39,0,10.23-3.21,12.33-8.17l85.69-202.74,6.46-15.28h0Z"/>
      </g>
    </g>
  </g>
  <rect id="_Slice_" data-name="&amp;lt;Slice&amp;gt;" class="cls-7" x="-2301" y="406.58" width="3643.14" height="1675.23"/>
  <rect id="_Slice_-2" data-name="&amp;lt;Slice&amp;gt;" class="cls-7" x="-2301" y="-406" width="3643.14" height="812.58"/>
  <path class="cls-3" d="M1219.2,409.52c-24.16,0-45.68-5.16-64.58-15.49-18.91-10.32-33.7-24.48-44.39-42.46-10.7-17.98-16.04-38.49-16.04-61.54s5.35-43.65,16.04-61.82c10.69-18.16,25.49-32.54,44.39-43.15,18.9-10.6,40.43-15.9,64.58-15.9s45.82,5.3,64.45,15.9c18.62,10.61,33.19,24.99,43.7,43.15,10.51,18.16,15.77,38.77,15.77,61.82s-5.25,43.56-15.77,61.54c-10.51,17.98-25.08,32.13-43.7,42.46-18.63,10.32-40.11,15.49-64.45,15.49ZM1219.2,351.16c11.62,0,21.71-2.63,30.29-7.88,8.57-5.25,15.21-12.53,19.92-21.85,4.7-9.31,7.05-19.86,7.05-31.67s-2.35-22.41-7.05-31.81c-4.7-9.41-11.34-16.83-19.92-22.26-8.57-5.44-18.67-8.16-30.29-8.16s-21.71,2.72-30.29,8.16c-8.57,5.44-15.26,12.86-20.05,22.26-4.8,9.4-7.19,20.01-7.19,31.81s2.4,22.36,7.19,31.67c4.8,9.32,11.48,16.6,20.05,21.85,8.57,5.26,18.67,7.88,30.29,7.88Z"/>
  <path class="cls-7" d="M391.61,60.98c-34.14,28.12-68.29,56.24-102.43,84.35"/>
  <line class="cls-6" x1="325.45" y1="425.84" x2="1091.81" y2="425.84"/>
  <text class="cls-5" transform="translate(415.08 509.44)"><tspan x="0" y="0">Lawn</tspan></text>
  <text class="cls-4" transform="translate(694.94 509.71)"><tspan x="0" y="0">Garden</tspan></text>
  <text class="cls-2" transform="translate(631.67 510.77)"><tspan x="0" y="0">&amp;</tspan></text>
</svg>