<?xml version="1.0" encoding="UTF-8"?>
<svg xmlns="http://www.w3.org/2000/svg" xmlns:xlink="http://www.w3.org/1999/xlink" viewBox="0 0 516.26 513.61">
  <defs>
    <style>
      .cls-1 {
        fill: #562822;
      }

      .cls-2 {
        fill: #d84839;
      }

      .cls-3 {
        fill: #ed6e58;
      }

      .cls-4 {
        fill: #ff957d;
      }

      .cls-5 {
        fill: #3f1d1b;
      }

      .cls-6 {
        isolation: isolate;
      }

      .cls-7 {
        fill: #bfbfbf;
      }

      .cls-8 {
        fill: #a9c8db;
      }

      .cls-9 {
        fill: #969696;
      }

      .cls-10 {
        fill: #a1a19f;
      }

      .cls-11 {
        fill: #3b7ca3;
      }

      .cls-12 {
        fill: #fff;
        mix-blend-mode: screen;
        opacity: .39;
      }

      .cls-13 {
        clip-path: url(#clippath);
      }
    </style>
    <clipPath id="clippath">
      <circle class="cls-8" cx="258.26" cy="256.85" r="248.49"/>
    </clipPath>
  </defs>
  <g class="cls-6">
    <g id="Layer_1" data-name="Layer 1">
      <g>
        <circle class="cls-8" cx="258.26" cy="256.85" r="248.49"/>
        <g class="cls-13">
          <g>
            <path class="cls-11" d="M50.66,545.31c23.3,5.19,48.52,6.45,48.52,6.45,0,0-.77,5.57-1.93,15.11,20.56-.31,41.12-.81,61.65-1.63,93.95-3.77,188.24-13.38,282.41-14.03,9.28-.78,25.38-2.49,40.66-5.89,25.57-5.69,29.23-25.36,29.23-25.36,0,0-9.89-21.92-15.9-52.87-6.02-30.95-8.49-55.34-19.66-68.66-11.17-13.33-34.37-20.34-66.41-29.66-35.46-10.32-53.52-25.92-53.52-25.92h-178.79s-18.06,15.61-53.52,25.92c-32.03,9.32-55.23,16.33-66.41,29.66-11.17,13.33-13.65,37.72-19.66,68.66-6.02,30.95-15.9,52.87-15.9,52.87,0,0,3.65,19.66,29.23,25.36Z"/>
            <path class="cls-11" d="M50.66,545.31c23.3,5.19,48.52,6.45,48.52,6.45,0,0-.77,5.57-1.93,15.11,20.56-.31,41.12-.81,61.65-1.63,93.95-3.77,188.24-13.38,282.41-14.03,9.28-.78,25.38-2.49,40.66-5.89,25.57-5.69,29.23-25.36,29.23-25.36,0,0-9.89-21.92-15.9-52.87-6.02-30.95-8.49-55.34-19.66-68.66-11.17-13.33-34.37-20.34-66.41-29.66-35.46-10.32-53.52-25.92-53.52-25.92h-178.79s-18.06,15.61-53.52,25.92c-32.03,9.32-55.23,16.33-66.41,29.66-11.17,13.33-13.65,37.72-19.66,68.66-6.02,30.95-15.9,52.87-15.9,52.87,0,0,3.65,19.66,29.23,25.36Z"/>
            <path class="cls-11" d="M50.66,545.31c23.3,5.19,48.52,6.45,48.52,6.45,0,0-.77,5.57-1.93,15.11,20.56-.31,41.12-.81,61.65-1.63,93.95-3.77,188.24-13.38,282.41-14.03,9.28-.78,25.38-2.49,40.66-5.89,25.57-5.69,29.23-25.36,29.23-25.36,0,0-9.89-21.92-15.9-52.87-6.02-30.95-8.49-55.34-19.66-68.66-11.17-13.33-34.37-20.34-66.41-29.66-35.46-10.32-53.52-25.92-53.52-25.92h-178.79s-18.06,15.61-53.52,25.92c-32.03,9.32-55.23,16.33-66.41,29.66-11.17,13.33-13.65,37.72-19.66,68.66-6.02,30.95-15.9,52.87-15.9,52.87,0,0,3.65,19.66,29.23,25.36Z"/>
            <path class="cls-10" d="M50.66,545.31c23.3,5.19,48.52,6.45,48.52,6.45,0,0-.77,5.57-1.93,15.11,20.56-.31,41.12-.81,61.65-1.63,93.95-3.77,188.24-13.38,282.41-14.03,9.28-.78,25.38-2.49,40.66-5.89,25.57-5.69,29.23-25.36,29.23-25.36,0,0-9.89-21.92-15.9-52.87-6.02-30.95-8.49-55.34-19.66-68.66-11.17-13.33-34.37-20.34-66.41-29.66-35.46-10.32-53.52-25.92-53.52-25.92h-178.79s-18.06,15.61-53.52,25.92c-32.03,9.32-55.23,16.33-66.41,29.66-11.17,13.33-13.65,37.72-19.66,68.66-6.02,30.95-15.9,52.87-15.9,52.87,0,0,3.65,19.66,29.23,25.36Z"/>
            <path class="cls-7" d="M266.65,559.19c.11-36,.21-67.19.21-75.01,0-18.37,12.25-45.45,23.53-62.54,9.71-14.7,22.89-19.02,22.89-19.02l-24.5-3.22-17.62,18.73s-22.35,41.87-22.35,67.34c0,10.31.21,40.55.46,74.84,5.79-.37,11.59-.74,17.38-1.12Z"/>
            <path class="cls-7" d="M220.11,400.36s15.15,4.19,27.08,15.47c11.93,11.28,14.51,19.66,14.51,19.66l9.03-14.18-18.05-16.12-15.8-7.74-16.76,2.9Z"/>
            <path class="cls-9" d="M99.18,553.05c-.09,0-.19-.01-.28-.03-.7-.16-1.13-.85-.97-1.54.16-.73,16.27-73.36,3.29-123.72-.18-.69.24-1.4.93-1.57.7-.18,1.39.24,1.57.93,13.13,50.97-3.11,124.2-3.28,124.93-.13.6-.66,1-1.26,1Z"/>
            <g>
              <path class="cls-12" d="M96.27,551.58l8.57-35.48c1.44-12.39,2.44-26.79,2.23-42.16l-18.61,77.02c3.28.3,5.95.5,7.81.63Z"/>
              <g>
                <path class="cls-12" d="M505.22,531.37c3.46-4.43,4.93-8.54,5.45-10.38l-.92-3.83c-2.79-6.79-9.96-25.58-14.72-50.07-6.02-30.95-8.49-55.34-19.66-68.66-.92-1.1-1.95-2.14-3.04-3.16l32.9,136.1Z"/>
                <path class="cls-12" d="M425.25,478.95l17.43,72.12c2.29-.2,4.9-.45,7.77-.77l-23.97-99.16c-.91,9.51-1.27,18.85-1.24,27.81Z"/>
              </g>
            </g>
            <path class="cls-4" d="M266.43,306.37c-32.02,0-53.29-8.62-53.29-8.62v55.47c0,29.23,49.19,65.73,57.16,65.73s49.43-36.5,49.43-65.73v-55.47s-21.27,8.62-53.29,8.62Z"/>
            <path class="cls-2" d="M266.65,334.92c11.57,0,35.39-4.15,53.08-18.62v-18.55s-21.27,8.62-53.29,8.62-53.29-8.62-53.29-8.62v18.54c17.82,14.52,41.93,18.63,53.51,18.63Z"/>
            <path class="cls-7" d="M319.5,310.42s25.58,10.75,30.95,19.13c8.08,12.6,13.54,56.95,13.54,56.95l-47.28-3.01,12.68,18.91s-18.05-.54-34.81,4.4c-4.34,1.28-11.83,9.72-15.15,11.28-9.07,4.25-10.53,1.78-10.53,1.78,0,0,26.65-30.47,42.87-58.08,10.67-18.16,7.73-51.36,7.73-51.36Z"/>
            <path class="cls-7" d="M213.14,310.42s-25.58,10.75-30.95,19.13c-8.08,12.6-13.54,56.95-13.54,56.95l47.28-3.01-12.68,18.91s20.2-2.15,36.96,2.79c16.17,4.77,30.95,16.33,30.95,16.33,0,0-36.37-29.52-50.29-59.74-8.81-19.13-7.73-51.36-7.73-51.36Z"/>
            <path class="cls-9" d="M249.81,560.27c.63-43.74,1.54-77.75,2.86-88.72,5.04-41.97,35.79-69.4,36.1-69.67.53-.47.59-1.28.12-1.82-.47-.54-1.28-.59-1.82-.12-.32.28-31.8,28.33-36.96,71.31-1.33,11.05-2.24,45.25-2.87,89.2.86-.05,1.72-.11,2.58-.16Z"/>
            <path class="cls-9" d="M434.67,551.28c-.91-4.17-15.9-74.41-3.25-123.52.18-.69-.24-1.4-.93-1.57-.7-.18-1.39.24-1.57.93-12.43,48.24,1.45,116.4,3.12,124.19.88-.01,1.75-.02,2.63-.03Z"/>
            <g>
              <path class="cls-4" d="M341.36,201.23c-2.17-12.68,5.95-42.87-14.31-77.86-16.2-27.99-48.73-27.99-61.03-27.99s-44.82,0-61.02,27.99c-20.25,34.99-12.14,65.17-14.3,77.86-2.73,15.99-5.75,57.15,7.15,85.64,14.1,31.14,52.82,38.72,68.39,38.72s53.87-7.58,67.97-38.72c12.9-28.49,9.89-69.64,7.15-85.64Z"/>
              <g>
                <path class="cls-4" d="M192.59,204.18c0-3.32-4.94-15.25-16.52-12.21-8.9,2.35-9.32,13.69-8.1,19.68,1.05,5.15,3.62,10.51,6,15.88,3.26,7.37,4.21,10.1,8,12.42,3.74,2.28,8.57-.42,8.73-2.53.16-2.1,1.9-29.93,1.9-33.25Z"/>
                <path class="cls-3" d="M178.94,202.46c-6.19,1.42-5.51,9.36-3.89,13.88,2.57,7.17,4.27,9.6,6.55,9.29,1.95-.27,3.28-3.33,3.1-6.19-.27-4.07,1.06-5.48,1.15-9.02.06-2.3-.3-9.47-6.9-7.96Z"/>
              </g>
              <g>
                <path class="cls-4" d="M338.96,204.18c0-3.32,4.94-15.25,16.52-12.21,8.91,2.35,9.32,13.69,8.1,19.68-1.06,5.15-3.62,10.51-6,15.88-3.26,7.37-4.21,10.1-7.99,12.42-3.73,2.28-8.57-.42-8.73-2.53-.16-2.1-1.89-29.93-1.89-33.25Z"/>
                <path class="cls-3" d="M352.61,202.46c6.19,1.42,5.51,9.36,3.89,13.88-2.56,7.17-4.27,9.6-6.54,9.29-1.95-.27-3.28-3.33-3.1-6.19.27-4.07-1.06-5.48-1.15-9.02-.06-2.3.3-9.47,6.9-7.96Z"/>
              </g>
              <g>
                <g>
                  <path class="cls-1" d="M357.98,161.74c1.33,6.15-.88,14.23-9.36,15.79-7.18,1.32-12.29-3.6-13.61-7.66-1.45-4.47.19-9.36.19-9.36,0,0-8.03,1.28-9.83-5.58-1.89-7.18,5.96-10.96,5.96-10.96,0,0-3.31-4.82-11.82-4.16-8.5.66-12.85,9.83-20.99,8.6-6.83-1.04-9.55-8.32-4.16-15.6,5.84-7.89,15.41-9.45,15.41-9.45,0,0-13.8-1.9-24.39,1.32-12.56,3.81-21.93,17.87-32.81,11.06-8.58-5.37,8.98-20.51,8.98-20.51,0,0-11.44,1.23-27.52,20.04-14.5,16.97-28.92,9.17-28.92,9.17,0,0-3.98,22.21-20.99,19.75-14.03-2.02-6.33-20.61-6.33-20.61,0,0-15.32,21.93-27.32,5.77-13.89-18.7,11.86-43.63,11.86-43.63,0,0-5.47-12.24,1.71-23.11,7.04-10.68,19.71-8.79,19.71-8.79,0,0,3.25-16.91,21.18-20.04,16.83-2.93,25.15,9.18,25.15,9.18,0,0,4.83-14.35,21.37-13.81,17.3.57,21.37,17.58,21.37,17.58,0,0,4.16-4.63,10.96-3.31,7.28,1.41,9.45,8.41,9.45,8.41,0,0,6.13-5.95,13.14-1.89,6.53,3.78,3.74,13.1,3.74,13.1,0,0,6-.52,8.37,6.1,2.16,6.06-2.93,10.59-2.93,10.59,0,0,7.15-4.53,12.67-.85,6.8,4.54,3.5,12.95,3.5,12.95,0,0,8.35-4.82,15.79,1.13,7.56,6.05,4.3,16.16,4.3,16.16,0,0,10.52-1.19,12.24,9.83,1.79,11.54-10.11,15.89-10.11,15.89,0,0,3.06,2.26,4.06,6.9Z"/>
                  <path class="cls-1" d="M186.44,158.19s-7.94.99-9.5,10.21c-1.96,11.56,4.73,17.06,4.73,17.06l6.05,25.53s6.75-10.87,6.66-17.91c-.1-7.04-2.17-8.74-2.27-13.47-.1-4.73,2.69-8.23,2.98-13.61.28-5.39-.95-9.26-.95-9.26l-7.7,1.46Z"/>
                  <path class="cls-1" d="M337.06,161.22s.5,9.14-.49,17.16c-.99,8.01-4.3,9.57-4.82,17.51-.43,6.52,3.05,12.97,11.35,13.61,8.29.64,12.12-5.6,13.26-10.42,1.14-4.82.57-13.47-.42-20.35-.77-5.31-2.2-10.28-2.2-10.28l-16.67-7.23Z"/>
                </g>
                <path class="cls-5" d="M261.55,116.38c-.41,0-.81-.22-1.02-.61-.3-.57-.09-1.27.48-1.57.43-.23,10.76-5.64,22.77-5.83h.01c.63,0,1.15.51,1.16,1.14,0,.64-.5,1.17-1.14,1.18-11.46.19-21.62,5.51-21.72,5.56-.17.1-.36.14-.54.14Z"/>
                <path class="cls-5" d="M322.87,125.5c-.1,0-.21-.01-.3-.04-4.8-1.28-9.99-1.18-13.51-.86-.63.05-1.2-.41-1.26-1.05-.05-.64.42-1.2,1.05-1.25,3.69-.33,9.18-.45,14.31.92.62.16.99.8.82,1.42-.13.51-.6.86-1.11.86Z"/>
                <path class="cls-5" d="M203.04,146.48h-.07c-.64-.03-1.13-.58-1.09-1.22.01-.27,1.8-27.62,29.34-39.78.58-.25,1.27.01,1.53.6.26.58,0,1.26-.6,1.52-26.21,11.57-27.95,37.53-27.97,37.79-.04.61-.55,1.09-1.16,1.09Z"/>
                <path class="cls-5" d="M177.57,144.45c-.14,0-.29-.03-.43-.08-.6-.23-.88-.91-.65-1.5.31-.79,7.94-19.6,27.78-31.7.55-.33,1.26-.16,1.59.39.33.55.16,1.26-.38,1.59-19.19,11.7-26.76,30.38-26.84,30.57-.18.45-.62.73-1.08.73Z"/>
                <path class="cls-5" d="M201.59,93.95c-.49,0-.94-.31-1.1-.8-4.81-14.82-16.49-18.6-16.61-18.64-.61-.19-.95-.84-.76-1.45.19-.61.84-.95,1.44-.77.52.16,12.94,4.12,18.13,20.15.2.61-.14,1.26-.74,1.46-.12.04-.24.06-.36.06Z"/>
                <path class="cls-5" d="M236.15,86.35s-.08,0-.12,0c-.64-.06-1.1-.63-1.03-1.27,1-9.82-2.18-16.66-5.03-20.68-.37-.52-.24-1.24.28-1.61.52-.37,1.25-.26,1.61.27,3.08,4.34,6.52,11.72,5.44,22.26-.06.6-.56,1.04-1.15,1.04Z"/>
                <path class="cls-5" d="M296.65,91.42s-.08,0-.12,0c-.64-.06-1.1-.63-1.03-1.27.63-6.11-.3-11.77-2.74-16.83-.28-.57-.04-1.27.53-1.55.58-.28,1.27-.04,1.55.54,2.64,5.45,3.64,11.53,2.96,18.07-.06.59-.56,1.04-1.15,1.04Z"/>
                <path class="cls-5" d="M270.39,84.91c-.59,0-1.09-.44-1.15-1.04-.68-6.55.33-12.63,2.97-18.08.28-.57.97-.81,1.55-.53.58.28.81.97.54,1.54-2.45,5.06-3.38,10.72-2.75,16.82.07.64-.39,1.21-1.03,1.27-.04,0-.08,0-.12,0Z"/>
                <path class="cls-5" d="M340.52,144.74c-.48,0-.92-.3-1.09-.77-.22-.6.1-1.26.71-1.47,9.38-3.28,10.44-13.07,10.49-13.49.07-.63.67-1.1,1.26-1.04.63.06,1.1.62,1.04,1.26-.05.47-1.23,11.68-12.03,15.45-.13.04-.25.06-.38.06Z"/>
              </g>
            </g>
          </g>
        </g>
      </g>
    </g>
  </g>
</svg>